<svg width="28" height="28" viewBox="0 0 28 28" fill="none" xmlns="http://www.w3.org/2000/svg">
    <path
        d="M24.1791 4.22333C24.0157 3.92 23.6891 3.73334 23.3624 3.73334H4.6724C4.3224 3.73334 4.01906 3.92 3.85573 4.22333C3.6924 4.52666 3.7624 4.89999 3.94907 5.17999L11.2291 15.8667V22.9367C11.2291 23.66 11.7191 24.2667 12.4657 24.2667H15.5924C16.3157 24.2667 16.8291 23.6833 16.8291 22.9367V15.8667L24.1091 5.17999C24.2724 4.89999 24.3424 4.52666 24.1791 4.22333ZM15.1491 15.0733C15.0557 15.2367 14.9391 15.4 14.9391 15.5867V22.4H13.0724V15.5867C13.0724 15.4 12.9791 15.2133 12.8624 15.0733L10.6457 11.83C11.1124 11.69 11.6724 11.55 12.2791 11.5733C13.0024 11.5733 13.4924 11.7133 14.0291 11.8533C14.5891 11.9933 15.1491 12.1333 15.9424 12.1567C16.4091 12.1567 16.8291 12.1333 17.2024 12.0867L15.1491 15.0733ZM18.5557 10.08C18.5324 10.08 17.5524 10.5233 15.9424 10.5C15.3591 10.5 14.9157 10.3833 14.4257 10.2433C13.8657 10.1033 13.2124 9.94 12.2791 9.91667C11.2291 9.91667 10.2957 10.1733 9.66574 10.4067L6.39907 5.57668H21.5891L18.5557 10.08ZM16.6424 8.54C16.4791 8.37666 16.3624 8.12001 16.3624 7.88668C16.3624 7.63001 16.4557 7.39667 16.6424 7.23334C16.8057 7.07 17.0624 6.95335 17.2957 6.95335C17.5524 6.95335 17.7857 7.04667 17.9491 7.23334C18.1124 7.42 18.2291 7.65335 18.2291 7.88668C18.2291 8.14335 18.1357 8.37666 17.9491 8.54C17.7624 8.70333 17.5291 8.82001 17.2957 8.82001C17.0624 8.82001 16.8057 8.70333 16.6424 8.54Z"
        fill="#415466" />
</svg>
