<svg width="30" height="30" viewBox="0 0 30 30" fill="white" xmlns="http://www.w3.org/2000/svg">
    <g clip-path="url(#clip0_4333_89)">
        <path
            d="M23.0398 0.0884957C22.7098 0.244117 22.4998 0.574108 22.4998 0.937849V3.75028H3.75031C1.68224 3.75028 0.000404358 5.43398 0.000404358 7.50018V19.6199L3.75031 16.4943V7.50018H22.4998V10.3126C22.4998 10.6764 22.7098 11.0063 23.0398 11.162C23.3698 11.3157 23.7579 11.267 24.0373 11.0326L29.6621 6.34521C29.8778 6.16709 29.9996 5.9046 29.9996 5.62523C29.9996 5.34586 29.8778 5.08337 29.6621 4.90525L24.0373 0.217867C23.7579 -0.0165016 23.3698 -0.0652504 23.0398 0.0884957Z"
                fill="#415466" />
        <path
            d="M26.2497 22.4998H7.50016V19.6874C7.50016 19.3236 7.29017 18.9936 6.96017 18.838C6.63018 18.6843 6.24207 18.733 5.9627 18.9674L0.337842 23.6548C0.122223 23.8329 0.000350952 24.0954 0.000350952 24.3747C0.000350952 24.6541 0.122223 24.9166 0.337842 25.0947L5.9627 29.7821C6.24207 30.0165 6.63018 30.0652 6.96017 29.9115C7.29017 29.7559 7.50016 29.4259 7.50016 29.0621V26.2497H26.2497C28.3178 26.2497 29.9996 24.5679 29.9996 22.4998V10.3801L26.2497 13.5056V22.4998Z"
            fill="#415466" />
    </g>
    <defs>
        <clipPath id="clip0_4333_89">
            <rect width="30" height="30" fill="white" />
        </clipPath>
    </defs>
</svg>
